<svg width="226" height="220" viewBox="0 0 226 220" fill="none" xmlns="http://www.w3.org/2000/svg">
<rect width="220" height="220" rx="20" fill="white"/>
<g filter="url(#filter0_d_201_74)">
<rect x="16" y="31" width="80" height="137" rx="4" fill="url(#paint0_linear_201_74)"/>
</g>
<g filter="url(#filter1_d_201_74)">
<rect x="103" y="31" width="79" height="137" rx="4" fill="url(#paint1_linear_201_74)"/>
</g>
<g filter="url(#filter2_d_201_74)">
<path d="M190 35C190 32.7909 191.791 31 194 31H220V168H194C191.791 168 190 166.209 190 164V35Z" fill="url(#paint2_linear_201_74)"/>
</g>
<g filter="url(#filter3_d_201_74)">
<rect x="193" y="88" width="24" height="24" rx="12" fill="#464646"/>
</g>
<rect x="203.565" y="106.463" width="2.09366" height="8.6553" transform="rotate(-135 203.565 106.463)" fill="white"/>
<rect x="202.008" y="95.7784" width="2.20076" height="8.6553" transform="rotate(-45 202.008 95.7784)" fill="white"/>
<rect x="16" y="182" width="188" height="7" rx="3.5" fill="#C4C4C4"/>
<rect x="16" y="181" width="70.2526" height="9" rx="4" fill="#6D6D6D"/>
<path d="M34.0312 130.055V134.562C33.8542 134.776 33.5807 135.008 33.2109 135.258C32.8411 135.503 32.3646 135.714 31.7812 135.891C31.1979 136.068 30.4922 136.156 29.6641 136.156C28.9297 136.156 28.2604 136.036 27.6562 135.797C27.0521 135.552 26.5312 135.195 26.0938 134.727C25.6615 134.258 25.3281 133.685 25.0938 133.008C24.8594 132.326 24.7422 131.547 24.7422 130.672V129.961C24.7422 129.086 24.8542 128.307 25.0781 127.625C25.3073 126.943 25.6328 126.367 26.0547 125.898C26.4766 125.43 26.9792 125.073 27.5625 124.828C28.1458 124.583 28.7943 124.461 29.5078 124.461C30.4974 124.461 31.3099 124.622 31.9453 124.945C32.5807 125.263 33.0651 125.706 33.3984 126.273C33.737 126.836 33.9453 127.482 34.0234 128.211H31.75C31.6927 127.826 31.5833 127.49 31.4219 127.203C31.2604 126.917 31.0286 126.693 30.7266 126.531C30.4297 126.37 30.0443 126.289 29.5703 126.289C29.1797 126.289 28.8307 126.37 28.5234 126.531C28.2214 126.688 27.9661 126.919 27.7578 127.227C27.5495 127.534 27.3906 127.914 27.2812 128.367C27.1719 128.82 27.1172 129.346 27.1172 129.945V130.672C27.1172 131.266 27.1745 131.792 27.2891 132.25C27.4036 132.703 27.5729 133.086 27.7969 133.398C28.026 133.706 28.3073 133.938 28.6406 134.094C28.974 134.25 29.362 134.328 29.8047 134.328C30.1745 134.328 30.4818 134.297 30.7266 134.234C30.9766 134.172 31.1771 134.096 31.3281 134.008C31.4844 133.914 31.6042 133.826 31.6875 133.742V131.727H29.5469V130.055H34.0312ZM38.1562 127.547V136H35.8984V127.547H38.1562ZM35.7578 125.344C35.7578 125.016 35.8724 124.745 36.1016 124.531C36.3307 124.318 36.638 124.211 37.0234 124.211C37.4036 124.211 37.7083 124.318 37.9375 124.531C38.1719 124.745 38.2891 125.016 38.2891 125.344C38.2891 125.672 38.1719 125.943 37.9375 126.156C37.7083 126.37 37.4036 126.477 37.0234 126.477C36.638 126.477 36.3307 126.37 36.1016 126.156C35.8724 125.943 35.7578 125.672 35.7578 125.344ZM44.1562 127.547V129.141H39.2344V127.547H44.1562ZM40.4531 125.461H42.7031V133.453C42.7031 133.698 42.7344 133.885 42.7969 134.016C42.8646 134.146 42.9635 134.237 43.0938 134.289C43.224 134.336 43.388 134.359 43.5859 134.359C43.7266 134.359 43.8516 134.354 43.9609 134.344C44.0755 134.328 44.1719 134.312 44.25 134.297L44.2578 135.953C44.0651 136.016 43.8568 136.065 43.6328 136.102C43.4089 136.138 43.1615 136.156 42.8906 136.156C42.3958 136.156 41.9635 136.076 41.5938 135.914C41.2292 135.747 40.9479 135.482 40.75 135.117C40.5521 134.753 40.4531 134.273 40.4531 133.68V125.461ZM50 134.094V130.328C50 130.057 49.9557 129.826 49.8672 129.633C49.7786 129.435 49.6406 129.281 49.4531 129.172C49.2708 129.062 49.0339 129.008 48.7422 129.008C48.4922 129.008 48.276 129.052 48.0938 129.141C47.9115 129.224 47.7708 129.346 47.6719 129.508C47.5729 129.664 47.5234 129.849 47.5234 130.062H45.2734C45.2734 129.703 45.3568 129.362 45.5234 129.039C45.6901 128.716 45.9323 128.432 46.25 128.188C46.5677 127.938 46.9453 127.742 47.3828 127.602C47.8255 127.461 48.3203 127.391 48.8672 127.391C49.5234 127.391 50.1068 127.5 50.6172 127.719C51.1276 127.938 51.5286 128.266 51.8203 128.703C52.1172 129.141 52.2656 129.688 52.2656 130.344V133.961C52.2656 134.424 52.2943 134.805 52.3516 135.102C52.4089 135.393 52.4922 135.648 52.6016 135.867V136H50.3281C50.2188 135.771 50.1354 135.484 50.0781 135.141C50.026 134.792 50 134.443 50 134.094ZM50.2969 130.852L50.3125 132.125H49.0547C48.7578 132.125 48.5 132.159 48.2812 132.227C48.0625 132.294 47.8828 132.391 47.7422 132.516C47.6016 132.635 47.4974 132.776 47.4297 132.938C47.3672 133.099 47.3359 133.276 47.3359 133.469C47.3359 133.661 47.3802 133.836 47.4688 133.992C47.5573 134.143 47.6849 134.263 47.8516 134.352C48.0182 134.435 48.2135 134.477 48.4375 134.477C48.776 134.477 49.0703 134.409 49.3203 134.273C49.5703 134.138 49.763 133.971 49.8984 133.773C50.0391 133.576 50.112 133.388 50.1172 133.211L50.7109 134.164C50.6276 134.378 50.513 134.599 50.3672 134.828C50.2266 135.057 50.0469 135.273 49.8281 135.477C49.6094 135.674 49.3464 135.839 49.0391 135.969C48.7318 136.094 48.3672 136.156 47.9453 136.156C47.4089 136.156 46.9219 136.049 46.4844 135.836C46.0521 135.617 45.7083 135.318 45.4531 134.938C45.2031 134.552 45.0781 134.115 45.0781 133.625C45.0781 133.182 45.1615 132.789 45.3281 132.445C45.4948 132.102 45.7396 131.812 46.0625 131.578C46.3906 131.339 46.7995 131.159 47.2891 131.039C47.7786 130.914 48.3464 130.852 48.9922 130.852H50.2969ZM56.25 129.391V136H54V127.547H56.1172L56.25 129.391ZM58.7969 127.492L58.7578 129.578C58.6484 129.562 58.5156 129.549 58.3594 129.539C58.2083 129.523 58.0703 129.516 57.9453 129.516C57.6276 129.516 57.3516 129.557 57.1172 129.641C56.888 129.719 56.6953 129.836 56.5391 129.992C56.388 130.148 56.2734 130.339 56.1953 130.562C56.1224 130.786 56.0807 131.042 56.0703 131.328L55.6172 131.188C55.6172 130.641 55.6719 130.138 55.7812 129.68C55.8906 129.216 56.0495 128.812 56.2578 128.469C56.4714 128.125 56.7318 127.859 57.0391 127.672C57.3464 127.484 57.6979 127.391 58.0938 127.391C58.2188 127.391 58.3464 127.401 58.4766 127.422C58.6068 127.438 58.7135 127.461 58.7969 127.492ZM64.3906 127.547V129.141H59.4688V127.547H64.3906ZM60.6875 125.461H62.9375V133.453C62.9375 133.698 62.9688 133.885 63.0312 134.016C63.099 134.146 63.1979 134.237 63.3281 134.289C63.4583 134.336 63.6224 134.359 63.8203 134.359C63.9609 134.359 64.0859 134.354 64.1953 134.344C64.3099 134.328 64.4062 134.312 64.4844 134.297L64.4922 135.953C64.2995 136.016 64.0911 136.065 63.8672 136.102C63.6432 136.138 63.3958 136.156 63.125 136.156C62.6302 136.156 62.1979 136.076 61.8281 135.914C61.4635 135.747 61.1823 135.482 60.9844 135.117C60.7865 134.753 60.6875 134.273 60.6875 133.68V125.461ZM31.6094 151.227H33.9453C33.8984 151.992 33.6875 152.672 33.3125 153.266C32.9427 153.859 32.4245 154.323 31.7578 154.656C31.0964 154.99 30.2995 155.156 29.3672 155.156C28.638 155.156 27.9844 155.031 27.4062 154.781C26.8281 154.526 26.3333 154.161 25.9219 153.688C25.5156 153.214 25.2057 152.641 24.9922 151.969C24.7786 151.297 24.6719 150.544 24.6719 149.711V148.922C24.6719 148.089 24.7812 147.336 25 146.664C25.224 145.987 25.5417 145.411 25.9531 144.938C26.3698 144.464 26.8672 144.099 27.4453 143.844C28.0234 143.589 28.6693 143.461 29.3828 143.461C30.3307 143.461 31.1302 143.633 31.7812 143.977C32.4375 144.32 32.9453 144.794 33.3047 145.398C33.6693 146.003 33.888 146.69 33.9609 147.461H31.6172C31.5911 147.003 31.5 146.615 31.3438 146.297C31.1875 145.974 30.9505 145.732 30.6328 145.57C30.3203 145.404 29.9036 145.32 29.3828 145.32C28.9922 145.32 28.651 145.393 28.3594 145.539C28.0677 145.685 27.8229 145.906 27.625 146.203C27.4271 146.5 27.2786 146.875 27.1797 147.328C27.0859 147.776 27.0391 148.302 27.0391 148.906V149.711C27.0391 150.299 27.0833 150.818 27.1719 151.266C27.2604 151.708 27.3958 152.083 27.5781 152.391C27.7656 152.693 28.0052 152.922 28.2969 153.078C28.5938 153.229 28.9505 153.305 29.3672 153.305C29.8568 153.305 30.2604 153.227 30.5781 153.07C30.8958 152.914 31.138 152.682 31.3047 152.375C31.4766 152.068 31.5781 151.685 31.6094 151.227ZM39.9062 153.094V149.328C39.9062 149.057 39.862 148.826 39.7734 148.633C39.6849 148.435 39.5469 148.281 39.3594 148.172C39.1771 148.062 38.9401 148.008 38.6484 148.008C38.3984 148.008 38.1823 148.052 38 148.141C37.8177 148.224 37.6771 148.346 37.5781 148.508C37.4792 148.664 37.4297 148.849 37.4297 149.062H35.1797C35.1797 148.703 35.263 148.362 35.4297 148.039C35.5964 147.716 35.8385 147.432 36.1562 147.188C36.474 146.938 36.8516 146.742 37.2891 146.602C37.7318 146.461 38.2266 146.391 38.7734 146.391C39.4297 146.391 40.013 146.5 40.5234 146.719C41.0339 146.938 41.4349 147.266 41.7266 147.703C42.0234 148.141 42.1719 148.688 42.1719 149.344V152.961C42.1719 153.424 42.2005 153.805 42.2578 154.102C42.3151 154.393 42.3984 154.648 42.5078 154.867V155H40.2344C40.125 154.771 40.0417 154.484 39.9844 154.141C39.9323 153.792 39.9062 153.443 39.9062 153.094ZM40.2031 149.852L40.2188 151.125H38.9609C38.6641 151.125 38.4062 151.159 38.1875 151.227C37.9688 151.294 37.7891 151.391 37.6484 151.516C37.5078 151.635 37.4036 151.776 37.3359 151.938C37.2734 152.099 37.2422 152.276 37.2422 152.469C37.2422 152.661 37.2865 152.836 37.375 152.992C37.4635 153.143 37.5911 153.263 37.7578 153.352C37.9245 153.435 38.1198 153.477 38.3438 153.477C38.6823 153.477 38.9766 153.409 39.2266 153.273C39.4766 153.138 39.6693 152.971 39.8047 152.773C39.9453 152.576 40.0182 152.388 40.0234 152.211L40.6172 153.164C40.5339 153.378 40.4193 153.599 40.2734 153.828C40.1328 154.057 39.9531 154.273 39.7344 154.477C39.5156 154.674 39.2526 154.839 38.9453 154.969C38.638 155.094 38.2734 155.156 37.8516 155.156C37.3151 155.156 36.8281 155.049 36.3906 154.836C35.9583 154.617 35.6146 154.318 35.3594 153.938C35.1094 153.552 34.9844 153.115 34.9844 152.625C34.9844 152.182 35.0677 151.789 35.2344 151.445C35.401 151.102 35.6458 150.812 35.9688 150.578C36.2969 150.339 36.7057 150.159 37.1953 150.039C37.6849 149.914 38.2526 149.852 38.8984 149.852H40.2031ZM46.1562 148.391V155H43.9062V146.547H46.0234L46.1562 148.391ZM48.7031 146.492L48.6641 148.578C48.5547 148.562 48.4219 148.549 48.2656 148.539C48.1146 148.523 47.9766 148.516 47.8516 148.516C47.5339 148.516 47.2578 148.557 47.0234 148.641C46.7943 148.719 46.6016 148.836 46.4453 148.992C46.2943 149.148 46.1797 149.339 46.1016 149.562C46.0286 149.786 45.987 150.042 45.9766 150.328L45.5234 150.188C45.5234 149.641 45.5781 149.138 45.6875 148.68C45.7969 148.216 45.9557 147.812 46.1641 147.469C46.3776 147.125 46.638 146.859 46.9453 146.672C47.2526 146.484 47.6042 146.391 48 146.391C48.125 146.391 48.2526 146.401 48.3828 146.422C48.513 146.438 48.6198 146.461 48.7031 146.492ZM49.1719 150.859V150.695C49.1719 150.076 49.2604 149.505 49.4375 148.984C49.6146 148.458 49.8724 148.003 50.2109 147.617C50.5495 147.232 50.9661 146.932 51.4609 146.719C51.9557 146.5 52.5234 146.391 53.1641 146.391C53.8047 146.391 54.375 146.5 54.875 146.719C55.375 146.932 55.7943 147.232 56.1328 147.617C56.4766 148.003 56.737 148.458 56.9141 148.984C57.0911 149.505 57.1797 150.076 57.1797 150.695V150.859C57.1797 151.474 57.0911 152.044 56.9141 152.57C56.737 153.091 56.4766 153.547 56.1328 153.938C55.7943 154.323 55.3776 154.622 54.8828 154.836C54.388 155.049 53.8203 155.156 53.1797 155.156C52.5391 155.156 51.9688 155.049 51.4688 154.836C50.974 154.622 50.5547 154.323 50.2109 153.938C49.8724 153.547 49.6146 153.091 49.4375 152.57C49.2604 152.044 49.1719 151.474 49.1719 150.859ZM51.4219 150.695V150.859C51.4219 151.214 51.4531 151.544 51.5156 151.852C51.5781 152.159 51.6771 152.43 51.8125 152.664C51.9531 152.893 52.1354 153.073 52.3594 153.203C52.5833 153.333 52.8568 153.398 53.1797 153.398C53.4922 153.398 53.7604 153.333 53.9844 153.203C54.2083 153.073 54.388 152.893 54.5234 152.664C54.6589 152.43 54.7578 152.159 54.8203 151.852C54.888 151.544 54.9219 151.214 54.9219 150.859V150.695C54.9219 150.352 54.888 150.029 54.8203 149.727C54.7578 149.419 54.6562 149.148 54.5156 148.914C54.3802 148.674 54.2005 148.487 53.9766 148.352C53.7526 148.216 53.4818 148.148 53.1641 148.148C52.8464 148.148 52.5755 148.216 52.3516 148.352C52.1328 148.487 51.9531 148.674 51.8125 148.914C51.6771 149.148 51.5781 149.419 51.5156 149.727C51.4531 150.029 51.4219 150.352 51.4219 150.695ZM63.5625 152.977V146.547H65.8125V155H63.6953L63.5625 152.977ZM63.8125 151.242L64.4766 151.227C64.4766 151.789 64.4115 152.312 64.2812 152.797C64.151 153.276 63.9557 153.693 63.6953 154.047C63.4349 154.396 63.1068 154.669 62.7109 154.867C62.3151 155.06 61.849 155.156 61.3125 155.156C60.901 155.156 60.5208 155.099 60.1719 154.984C59.8281 154.865 59.5312 154.68 59.2812 154.43C59.0365 154.174 58.8438 153.849 58.7031 153.453C58.5677 153.052 58.5 152.57 58.5 152.008V146.547H60.75V152.023C60.75 152.273 60.7786 152.484 60.8359 152.656C60.8984 152.828 60.9844 152.969 61.0938 153.078C61.2031 153.188 61.3307 153.266 61.4766 153.312C61.6276 153.359 61.7943 153.383 61.9766 153.383C62.4401 153.383 62.8047 153.289 63.0703 153.102C63.3411 152.914 63.5312 152.659 63.6406 152.336C63.7552 152.008 63.8125 151.643 63.8125 151.242ZM72.1016 152.664C72.1016 152.503 72.0547 152.357 71.9609 152.227C71.8672 152.096 71.6927 151.977 71.4375 151.867C71.1875 151.753 70.8255 151.648 70.3516 151.555C69.9245 151.461 69.526 151.344 69.1562 151.203C68.7917 151.057 68.474 150.883 68.2031 150.68C67.9375 150.477 67.7292 150.237 67.5781 149.961C67.4271 149.68 67.3516 149.359 67.3516 149C67.3516 148.646 67.4271 148.312 67.5781 148C67.7344 147.688 67.9557 147.411 68.2422 147.172C68.5339 146.927 68.888 146.737 69.3047 146.602C69.7266 146.461 70.2005 146.391 70.7266 146.391C71.4609 146.391 72.0911 146.508 72.6172 146.742C73.1484 146.977 73.5547 147.299 73.8359 147.711C74.1224 148.117 74.2656 148.581 74.2656 149.102H72.0156C72.0156 148.883 71.9688 148.688 71.875 148.516C71.7865 148.339 71.6458 148.201 71.4531 148.102C71.2656 147.997 71.0208 147.945 70.7188 147.945C70.4688 147.945 70.2526 147.99 70.0703 148.078C69.888 148.161 69.7474 148.276 69.6484 148.422C69.5547 148.562 69.5078 148.719 69.5078 148.891C69.5078 149.021 69.5339 149.138 69.5859 149.242C69.6432 149.341 69.7344 149.432 69.8594 149.516C69.9844 149.599 70.1458 149.677 70.3438 149.75C70.5469 149.818 70.7969 149.88 71.0938 149.938C71.7031 150.062 72.2474 150.227 72.7266 150.43C73.2057 150.628 73.5859 150.898 73.8672 151.242C74.1484 151.581 74.2891 152.026 74.2891 152.578C74.2891 152.953 74.2057 153.297 74.0391 153.609C73.8724 153.922 73.6328 154.195 73.3203 154.43C73.0078 154.659 72.6328 154.839 72.1953 154.969C71.763 155.094 71.276 155.156 70.7344 155.156C69.9479 155.156 69.2812 155.016 68.7344 154.734C68.1927 154.453 67.7812 154.096 67.5 153.664C67.224 153.227 67.0859 152.779 67.0859 152.32H69.2188C69.2292 152.628 69.3073 152.875 69.4531 153.062C69.6042 153.25 69.7943 153.385 70.0234 153.469C70.2578 153.552 70.5104 153.594 70.7812 153.594C71.0729 153.594 71.3151 153.555 71.5078 153.477C71.7005 153.393 71.8464 153.284 71.9453 153.148C72.0495 153.008 72.1016 152.846 72.1016 152.664ZM79.6406 155.156C78.9844 155.156 78.3958 155.052 77.875 154.844C77.3542 154.63 76.9115 154.336 76.5469 153.961C76.1875 153.586 75.9115 153.151 75.7188 152.656C75.526 152.156 75.4297 151.625 75.4297 151.062V150.75C75.4297 150.109 75.5208 149.523 75.7031 148.992C75.8854 148.461 76.1458 148 76.4844 147.609C76.8281 147.219 77.2448 146.919 77.7344 146.711C78.224 146.497 78.776 146.391 79.3906 146.391C79.9896 146.391 80.5208 146.49 80.9844 146.688C81.4479 146.885 81.8359 147.167 82.1484 147.531C82.4661 147.896 82.7057 148.333 82.8672 148.844C83.0286 149.349 83.1094 149.911 83.1094 150.531V151.469H76.3906V149.969H80.8984V149.797C80.8984 149.484 80.8411 149.206 80.7266 148.961C80.6172 148.711 80.4505 148.513 80.2266 148.367C80.0026 148.221 79.7161 148.148 79.3672 148.148C79.0703 148.148 78.8151 148.214 78.6016 148.344C78.388 148.474 78.2135 148.656 78.0781 148.891C77.9479 149.125 77.849 149.401 77.7812 149.719C77.7188 150.031 77.6875 150.375 77.6875 150.75V151.062C77.6875 151.401 77.7344 151.714 77.8281 152C77.9271 152.286 78.0651 152.534 78.2422 152.742C78.4245 152.951 78.6432 153.112 78.8984 153.227C79.1589 153.341 79.4531 153.398 79.7812 153.398C80.1875 153.398 80.5651 153.32 80.9141 153.164C81.2682 153.003 81.5729 152.76 81.8281 152.438L82.9219 153.625C82.7448 153.88 82.5026 154.125 82.1953 154.359C81.8932 154.594 81.5286 154.786 81.1016 154.938C80.6745 155.083 80.1875 155.156 79.6406 155.156ZM86.7656 143V155H84.5078V143H86.7656Z" fill="white"/>
<defs>
<filter id="filter0_d_201_74" x="10" y="27" width="92" height="149" filterUnits="userSpaceOnUse" color-interpolation-filters="sRGB">
<feFlood flood-opacity="0" result="BackgroundImageFix"/>
<feColorMatrix in="SourceAlpha" type="matrix" values="0 0 0 0 0 0 0 0 0 0 0 0 0 0 0 0 0 0 127 0" result="hardAlpha"/>
<feOffset dy="2"/>
<feGaussianBlur stdDeviation="3"/>
<feComposite in2="hardAlpha" operator="out"/>
<feColorMatrix type="matrix" values="0 0 0 0 0 0 0 0 0 0 0 0 0 0 0 0 0 0 0.3 0"/>
<feBlend mode="normal" in2="BackgroundImageFix" result="effect1_dropShadow_201_74"/>
<feBlend mode="normal" in="SourceGraphic" in2="effect1_dropShadow_201_74" result="shape"/>
</filter>
<filter id="filter1_d_201_74" x="97" y="27" width="91" height="149" filterUnits="userSpaceOnUse" color-interpolation-filters="sRGB">
<feFlood flood-opacity="0" result="BackgroundImageFix"/>
<feColorMatrix in="SourceAlpha" type="matrix" values="0 0 0 0 0 0 0 0 0 0 0 0 0 0 0 0 0 0 127 0" result="hardAlpha"/>
<feOffset dy="2"/>
<feGaussianBlur stdDeviation="3"/>
<feComposite in2="hardAlpha" operator="out"/>
<feColorMatrix type="matrix" values="0 0 0 0 0 0 0 0 0 0 0 0 0 0 0 0 0 0 0.3 0"/>
<feBlend mode="normal" in2="BackgroundImageFix" result="effect1_dropShadow_201_74"/>
<feBlend mode="normal" in="SourceGraphic" in2="effect1_dropShadow_201_74" result="shape"/>
</filter>
<filter id="filter2_d_201_74" x="184" y="27" width="42" height="149" filterUnits="userSpaceOnUse" color-interpolation-filters="sRGB">
<feFlood flood-opacity="0" result="BackgroundImageFix"/>
<feColorMatrix in="SourceAlpha" type="matrix" values="0 0 0 0 0 0 0 0 0 0 0 0 0 0 0 0 0 0 127 0" result="hardAlpha"/>
<feOffset dy="2"/>
<feGaussianBlur stdDeviation="3"/>
<feComposite in2="hardAlpha" operator="out"/>
<feColorMatrix type="matrix" values="0 0 0 0 0 0 0 0 0 0 0 0 0 0 0 0 0 0 0.3 0"/>
<feBlend mode="normal" in2="BackgroundImageFix" result="effect1_dropShadow_201_74"/>
<feBlend mode="normal" in="SourceGraphic" in2="effect1_dropShadow_201_74" result="shape"/>
</filter>
<filter id="filter3_d_201_74" x="187" y="84" width="36" height="36" filterUnits="userSpaceOnUse" color-interpolation-filters="sRGB">
<feFlood flood-opacity="0" result="BackgroundImageFix"/>
<feColorMatrix in="SourceAlpha" type="matrix" values="0 0 0 0 0 0 0 0 0 0 0 0 0 0 0 0 0 0 127 0" result="hardAlpha"/>
<feOffset dy="2"/>
<feGaussianBlur stdDeviation="3"/>
<feComposite in2="hardAlpha" operator="out"/>
<feColorMatrix type="matrix" values="0 0 0 0 0 0 0 0 0 0 0 0 0 0 0 0 0 0 0.3 0"/>
<feBlend mode="normal" in2="BackgroundImageFix" result="effect1_dropShadow_201_74"/>
<feBlend mode="normal" in="SourceGraphic" in2="effect1_dropShadow_201_74" result="shape"/>
</filter>
<linearGradient id="paint0_linear_201_74" x1="16" y1="31" x2="134.574" y2="110.378" gradientUnits="userSpaceOnUse">
<stop stop-color="#A78BFA"/>
<stop offset="0.505208" stop-color="#EC4899"/>
<stop offset="1" stop-color="#EF4444"/>
</linearGradient>
<linearGradient id="paint1_linear_201_74" x1="103" y1="31" x2="220.999" y2="109.006" gradientUnits="userSpaceOnUse">
<stop stop-color="#A78BFA"/>
<stop offset="0.505208" stop-color="#EC4899"/>
<stop offset="1" stop-color="#EF4444"/>
</linearGradient>
<linearGradient id="paint2_linear_201_74" x1="190" y1="31" x2="250.575" y2="46.2067" gradientUnits="userSpaceOnUse">
<stop stop-color="#A78BFA"/>
<stop offset="0.505208" stop-color="#EC4899"/>
<stop offset="1" stop-color="#EF4444"/>
</linearGradient>
</defs>
</svg>
